<mxfile host="app.diagrams.net" modified="2024-06-17T09:45:04.412Z" agent="Mozilla/5.0 (Windows NT 10.0; Win64; x64) AppleWebKit/537.36 (KHTML, like Gecko) Chrome/126.0.0.0 Safari/537.36 Edg/126.0.0.0" etag="In5rInk5IiRNI6AlXEse" version="24.5.4" type="google">
  <diagram name="Page-1" id="dAldJ7ixTR6lJiKEAnAV">
    <mxGraphModel grid="1" page="1" gridSize="10" guides="1" tooltips="1" connect="1" arrows="1" fold="1" pageScale="1" pageWidth="827" pageHeight="1169" math="0" shadow="0">
      <root>
        <mxCell id="0" />
        <mxCell id="1" parent="0" />
        <mxCell id="elizlL1mAkCcBMjCLCF5-3" style="edgeStyle=orthogonalEdgeStyle;rounded=0;orthogonalLoop=1;jettySize=auto;html=1;exitX=0.5;exitY=1;exitDx=0;exitDy=0;exitPerimeter=0;" edge="1" parent="1" source="elizlL1mAkCcBMjCLCF5-1" target="elizlL1mAkCcBMjCLCF5-2">
          <mxGeometry relative="1" as="geometry" />
        </mxCell>
        <mxCell id="elizlL1mAkCcBMjCLCF5-1" value="&lt;font style=&quot;font-size: 20px;&quot;&gt;Start&lt;/font&gt;" style="strokeWidth=2;html=1;shape=mxgraph.flowchart.start_1;whiteSpace=wrap;fillColor=#ffe6cc;strokeColor=#d79b00;" vertex="1" parent="1">
          <mxGeometry x="375" y="10" width="100" height="60" as="geometry" />
        </mxCell>
        <mxCell id="elizlL1mAkCcBMjCLCF5-16" style="edgeStyle=orthogonalEdgeStyle;rounded=0;orthogonalLoop=1;jettySize=auto;html=1;exitX=0.5;exitY=1;exitDx=0;exitDy=0;" edge="1" parent="1" source="elizlL1mAkCcBMjCLCF5-2" target="elizlL1mAkCcBMjCLCF5-4">
          <mxGeometry relative="1" as="geometry" />
        </mxCell>
        <mxCell id="elizlL1mAkCcBMjCLCF5-2" value="&lt;font style=&quot;font-size: 15px;&quot;&gt;Enter Obtained&amp;nbsp;&lt;/font&gt;&lt;div style=&quot;font-size: 15px;&quot;&gt;&lt;font style=&quot;font-size: 15px;&quot;&gt;Marks:&amp;nbsp;&lt;span style=&quot;background-color: initial;&quot;&gt;&quot;Score&quot;&lt;/span&gt;&lt;/font&gt;&lt;/div&gt;" style="shape=parallelogram;html=1;strokeWidth=2;perimeter=parallelogramPerimeter;whiteSpace=wrap;rounded=1;arcSize=12;size=0.23;fillColor=#dae8fc;strokeColor=#6c8ebf;" vertex="1" parent="1">
          <mxGeometry x="335" y="120" width="180" height="60" as="geometry" />
        </mxCell>
        <mxCell id="elizlL1mAkCcBMjCLCF5-9" style="edgeStyle=orthogonalEdgeStyle;rounded=0;orthogonalLoop=1;jettySize=auto;html=1;exitX=1;exitY=0.5;exitDx=0;exitDy=0;exitPerimeter=0;entryX=0;entryY=0.5;entryDx=0;entryDy=0;" edge="1" parent="1" source="elizlL1mAkCcBMjCLCF5-4" target="elizlL1mAkCcBMjCLCF5-8">
          <mxGeometry relative="1" as="geometry" />
        </mxCell>
        <mxCell id="elizlL1mAkCcBMjCLCF5-17" style="edgeStyle=orthogonalEdgeStyle;rounded=0;orthogonalLoop=1;jettySize=auto;html=1;exitX=0.5;exitY=1;exitDx=0;exitDy=0;exitPerimeter=0;" edge="1" parent="1" source="elizlL1mAkCcBMjCLCF5-4" target="elizlL1mAkCcBMjCLCF5-5">
          <mxGeometry relative="1" as="geometry" />
        </mxCell>
        <mxCell id="elizlL1mAkCcBMjCLCF5-4" value="is&lt;br&gt;score &amp;gt;= 90 ?" style="strokeWidth=2;html=1;shape=mxgraph.flowchart.decision;whiteSpace=wrap;fillColor=#d5e8d4;strokeColor=#82b366;" vertex="1" parent="1">
          <mxGeometry x="365" y="220" width="120" height="100" as="geometry" />
        </mxCell>
        <mxCell id="elizlL1mAkCcBMjCLCF5-13" style="edgeStyle=orthogonalEdgeStyle;rounded=0;orthogonalLoop=1;jettySize=auto;html=1;exitX=1;exitY=0.5;exitDx=0;exitDy=0;exitPerimeter=0;entryX=0;entryY=0.5;entryDx=0;entryDy=0;" edge="1" parent="1" source="elizlL1mAkCcBMjCLCF5-5" target="elizlL1mAkCcBMjCLCF5-10">
          <mxGeometry relative="1" as="geometry" />
        </mxCell>
        <mxCell id="elizlL1mAkCcBMjCLCF5-5" value="is&lt;br&gt;score &amp;gt;= 80 ?" style="strokeWidth=2;html=1;shape=mxgraph.flowchart.decision;whiteSpace=wrap;fillColor=#d5e8d4;strokeColor=#82b366;" vertex="1" parent="1">
          <mxGeometry x="365" y="360" width="120" height="100" as="geometry" />
        </mxCell>
        <mxCell id="elizlL1mAkCcBMjCLCF5-14" style="edgeStyle=orthogonalEdgeStyle;rounded=0;orthogonalLoop=1;jettySize=auto;html=1;exitX=1;exitY=0.5;exitDx=0;exitDy=0;exitPerimeter=0;entryX=0;entryY=0.5;entryDx=0;entryDy=0;" edge="1" parent="1" source="elizlL1mAkCcBMjCLCF5-6" target="elizlL1mAkCcBMjCLCF5-11">
          <mxGeometry relative="1" as="geometry" />
        </mxCell>
        <mxCell id="elizlL1mAkCcBMjCLCF5-6" value="is&lt;br&gt;score &amp;gt;= 70 ?" style="strokeWidth=2;html=1;shape=mxgraph.flowchart.decision;whiteSpace=wrap;fillColor=#d5e8d4;strokeColor=#82b366;" vertex="1" parent="1">
          <mxGeometry x="365" y="500" width="120" height="100" as="geometry" />
        </mxCell>
        <mxCell id="elizlL1mAkCcBMjCLCF5-15" style="edgeStyle=orthogonalEdgeStyle;rounded=0;orthogonalLoop=1;jettySize=auto;html=1;exitX=1;exitY=0.5;exitDx=0;exitDy=0;exitPerimeter=0;entryX=0;entryY=0.5;entryDx=0;entryDy=0;" edge="1" parent="1" source="elizlL1mAkCcBMjCLCF5-7" target="elizlL1mAkCcBMjCLCF5-12">
          <mxGeometry relative="1" as="geometry" />
        </mxCell>
        <mxCell id="elizlL1mAkCcBMjCLCF5-21" style="edgeStyle=orthogonalEdgeStyle;rounded=0;orthogonalLoop=1;jettySize=auto;html=1;exitX=0.5;exitY=1;exitDx=0;exitDy=0;exitPerimeter=0;entryX=0.5;entryY=0;entryDx=0;entryDy=0;" edge="1" parent="1" source="elizlL1mAkCcBMjCLCF5-7" target="elizlL1mAkCcBMjCLCF5-20">
          <mxGeometry relative="1" as="geometry" />
        </mxCell>
        <mxCell id="elizlL1mAkCcBMjCLCF5-7" value="is&lt;br&gt;score &amp;gt;= 60 ?" style="strokeWidth=2;html=1;shape=mxgraph.flowchart.decision;whiteSpace=wrap;fillColor=#d5e8d4;strokeColor=#82b366;" vertex="1" parent="1">
          <mxGeometry x="365" y="640" width="120" height="100" as="geometry" />
        </mxCell>
        <mxCell id="elizlL1mAkCcBMjCLCF5-8" value="&lt;span style=&quot;font-size: 15px;&quot;&gt;Print Grade: &quot;A&quot;&lt;/span&gt;" style="shape=parallelogram;html=1;strokeWidth=2;perimeter=parallelogramPerimeter;whiteSpace=wrap;rounded=1;arcSize=12;size=0.23;fillColor=#dae8fc;strokeColor=#6c8ebf;" vertex="1" parent="1">
          <mxGeometry x="515" y="240" width="180" height="60" as="geometry" />
        </mxCell>
        <mxCell id="elizlL1mAkCcBMjCLCF5-10" value="&lt;span style=&quot;font-size: 15px;&quot;&gt;Print Grade: &quot;B&quot;&lt;/span&gt;" style="shape=parallelogram;html=1;strokeWidth=2;perimeter=parallelogramPerimeter;whiteSpace=wrap;rounded=1;arcSize=12;size=0.23;fillColor=#dae8fc;strokeColor=#6c8ebf;" vertex="1" parent="1">
          <mxGeometry x="515" y="380" width="180" height="60" as="geometry" />
        </mxCell>
        <mxCell id="elizlL1mAkCcBMjCLCF5-26" style="edgeStyle=orthogonalEdgeStyle;rounded=0;orthogonalLoop=1;jettySize=auto;html=1;exitX=1;exitY=0.5;exitDx=0;exitDy=0;entryX=1;entryY=0.5;entryDx=0;entryDy=0;entryPerimeter=0;" edge="1" parent="1" source="elizlL1mAkCcBMjCLCF5-11" target="elizlL1mAkCcBMjCLCF5-22">
          <mxGeometry relative="1" as="geometry">
            <mxPoint x="760" y="700" as="targetPoint" />
            <Array as="points">
              <mxPoint x="760" y="550" />
              <mxPoint x="760" y="910" />
            </Array>
          </mxGeometry>
        </mxCell>
        <mxCell id="elizlL1mAkCcBMjCLCF5-11" value="&lt;span style=&quot;font-size: 15px;&quot;&gt;Print Grade: &quot;C&quot;&lt;/span&gt;" style="shape=parallelogram;html=1;strokeWidth=2;perimeter=parallelogramPerimeter;whiteSpace=wrap;rounded=1;arcSize=12;size=0.23;fillColor=#dae8fc;strokeColor=#6c8ebf;" vertex="1" parent="1">
          <mxGeometry x="515" y="520" width="180" height="60" as="geometry" />
        </mxCell>
        <mxCell id="elizlL1mAkCcBMjCLCF5-12" value="&lt;span style=&quot;font-size: 15px;&quot;&gt;Print Grade: &quot;D&quot;&lt;/span&gt;" style="shape=parallelogram;html=1;strokeWidth=2;perimeter=parallelogramPerimeter;whiteSpace=wrap;rounded=1;arcSize=12;size=0.23;fillColor=#dae8fc;strokeColor=#6c8ebf;" vertex="1" parent="1">
          <mxGeometry x="515" y="660" width="180" height="60" as="geometry" />
        </mxCell>
        <mxCell id="elizlL1mAkCcBMjCLCF5-18" style="edgeStyle=orthogonalEdgeStyle;rounded=0;orthogonalLoop=1;jettySize=auto;html=1;exitX=0.5;exitY=1;exitDx=0;exitDy=0;exitPerimeter=0;entryX=0.5;entryY=0;entryDx=0;entryDy=0;entryPerimeter=0;" edge="1" parent="1" source="elizlL1mAkCcBMjCLCF5-5" target="elizlL1mAkCcBMjCLCF5-6">
          <mxGeometry relative="1" as="geometry" />
        </mxCell>
        <mxCell id="elizlL1mAkCcBMjCLCF5-19" style="edgeStyle=orthogonalEdgeStyle;rounded=0;orthogonalLoop=1;jettySize=auto;html=1;exitX=0.5;exitY=1;exitDx=0;exitDy=0;exitPerimeter=0;entryX=0.5;entryY=0;entryDx=0;entryDy=0;entryPerimeter=0;" edge="1" parent="1" source="elizlL1mAkCcBMjCLCF5-6" target="elizlL1mAkCcBMjCLCF5-7">
          <mxGeometry relative="1" as="geometry" />
        </mxCell>
        <mxCell id="elizlL1mAkCcBMjCLCF5-20" value="&lt;span style=&quot;font-size: 15px;&quot;&gt;Print Grade: &quot;F&quot;&lt;/span&gt;" style="shape=parallelogram;html=1;strokeWidth=2;perimeter=parallelogramPerimeter;whiteSpace=wrap;rounded=1;arcSize=12;size=0.23;fillColor=#dae8fc;strokeColor=#6c8ebf;" vertex="1" parent="1">
          <mxGeometry x="335" y="780" width="180" height="60" as="geometry" />
        </mxCell>
        <mxCell id="elizlL1mAkCcBMjCLCF5-22" value="&lt;font style=&quot;font-size: 20px;&quot;&gt;End&lt;/font&gt;" style="strokeWidth=2;html=1;shape=mxgraph.flowchart.start_1;whiteSpace=wrap;fillColor=#ffe6cc;strokeColor=#d79b00;" vertex="1" parent="1">
          <mxGeometry x="375" y="880" width="100" height="60" as="geometry" />
        </mxCell>
        <mxCell id="elizlL1mAkCcBMjCLCF5-23" style="edgeStyle=orthogonalEdgeStyle;rounded=0;orthogonalLoop=1;jettySize=auto;html=1;exitX=0.5;exitY=1;exitDx=0;exitDy=0;entryX=0.5;entryY=0;entryDx=0;entryDy=0;entryPerimeter=0;" edge="1" parent="1" source="elizlL1mAkCcBMjCLCF5-20" target="elizlL1mAkCcBMjCLCF5-22">
          <mxGeometry relative="1" as="geometry" />
        </mxCell>
        <mxCell id="elizlL1mAkCcBMjCLCF5-25" style="edgeStyle=orthogonalEdgeStyle;rounded=0;orthogonalLoop=1;jettySize=auto;html=1;exitX=1;exitY=0.5;exitDx=0;exitDy=0;entryX=1;entryY=0.5;entryDx=0;entryDy=0;entryPerimeter=0;" edge="1" parent="1" source="elizlL1mAkCcBMjCLCF5-12" target="elizlL1mAkCcBMjCLCF5-22">
          <mxGeometry relative="1" as="geometry">
            <Array as="points">
              <mxPoint x="760" y="690" />
              <mxPoint x="760" y="910" />
            </Array>
          </mxGeometry>
        </mxCell>
        <mxCell id="elizlL1mAkCcBMjCLCF5-27" style="edgeStyle=orthogonalEdgeStyle;rounded=0;orthogonalLoop=1;jettySize=auto;html=1;exitX=1;exitY=0.5;exitDx=0;exitDy=0;entryX=1;entryY=0.5;entryDx=0;entryDy=0;entryPerimeter=0;" edge="1" parent="1" source="elizlL1mAkCcBMjCLCF5-10" target="elizlL1mAkCcBMjCLCF5-22">
          <mxGeometry relative="1" as="geometry">
            <Array as="points">
              <mxPoint x="760" y="410" />
              <mxPoint x="760" y="910" />
            </Array>
          </mxGeometry>
        </mxCell>
        <mxCell id="elizlL1mAkCcBMjCLCF5-28" style="edgeStyle=orthogonalEdgeStyle;rounded=0;orthogonalLoop=1;jettySize=auto;html=1;exitX=1;exitY=0.5;exitDx=0;exitDy=0;entryX=1;entryY=0.5;entryDx=0;entryDy=0;entryPerimeter=0;" edge="1" parent="1" source="elizlL1mAkCcBMjCLCF5-8" target="elizlL1mAkCcBMjCLCF5-22">
          <mxGeometry relative="1" as="geometry">
            <Array as="points">
              <mxPoint x="760" y="270" />
              <mxPoint x="760" y="910" />
            </Array>
          </mxGeometry>
        </mxCell>
        <mxCell id="elizlL1mAkCcBMjCLCF5-29" value="Yes" style="text;html=1;align=center;verticalAlign=middle;whiteSpace=wrap;rounded=0;" vertex="1" parent="1">
          <mxGeometry x="470" y="240" width="60" height="30" as="geometry" />
        </mxCell>
        <mxCell id="elizlL1mAkCcBMjCLCF5-30" value="Yes" style="text;html=1;align=center;verticalAlign=middle;whiteSpace=wrap;rounded=0;" vertex="1" parent="1">
          <mxGeometry x="470" y="380" width="60" height="30" as="geometry" />
        </mxCell>
        <mxCell id="elizlL1mAkCcBMjCLCF5-31" value="Yes" style="text;html=1;align=center;verticalAlign=middle;whiteSpace=wrap;rounded=0;" vertex="1" parent="1">
          <mxGeometry x="470" y="520" width="60" height="30" as="geometry" />
        </mxCell>
        <mxCell id="elizlL1mAkCcBMjCLCF5-32" value="Yes" style="text;html=1;align=center;verticalAlign=middle;whiteSpace=wrap;rounded=0;" vertex="1" parent="1">
          <mxGeometry x="470" y="660" width="60" height="30" as="geometry" />
        </mxCell>
        <mxCell id="elizlL1mAkCcBMjCLCF5-33" value="No" style="text;html=1;align=center;verticalAlign=middle;whiteSpace=wrap;rounded=0;" vertex="1" parent="1">
          <mxGeometry x="410" y="320" width="60" height="30" as="geometry" />
        </mxCell>
        <mxCell id="elizlL1mAkCcBMjCLCF5-34" value="No" style="text;html=1;align=center;verticalAlign=middle;whiteSpace=wrap;rounded=0;" vertex="1" parent="1">
          <mxGeometry x="410" y="460" width="60" height="30" as="geometry" />
        </mxCell>
        <mxCell id="elizlL1mAkCcBMjCLCF5-35" value="No" style="text;html=1;align=center;verticalAlign=middle;whiteSpace=wrap;rounded=0;" vertex="1" parent="1">
          <mxGeometry x="410" y="600" width="60" height="30" as="geometry" />
        </mxCell>
        <mxCell id="elizlL1mAkCcBMjCLCF5-36" value="No" style="text;html=1;align=center;verticalAlign=middle;whiteSpace=wrap;rounded=0;" vertex="1" parent="1">
          <mxGeometry x="410" y="740" width="60" height="30" as="geometry" />
        </mxCell>
      </root>
    </mxGraphModel>
  </diagram>
</mxfile>
